<svg width="24" height="24" viewBox="0 0 24 24" fill="none" xmlns="http://www.w3.org/2000/svg">
<path d="M10.7999 5.76559C9.49156 5.12858 8.05508 4.7986 6.5999 4.80079C5.0939 4.80079 3.6683 5.14879 2.3999 5.76559V17.7656C3.70826 17.1286 5.14473 16.7986 6.5999 16.8008C8.6027 16.8008 10.4615 17.4128 11.9999 18.4628C13.5912 17.3771 15.4735 16.7977 17.3999 16.8008C18.9059 16.8008 20.3315 17.1488 21.5999 17.7656V5.76559C20.2916 5.12858 18.8551 4.7986 17.3999 4.80079C15.8939 4.80079 14.4683 5.14879 13.1999 5.76559V14.4008C13.1999 14.7191 13.0735 15.0243 12.8484 15.2493C12.6234 15.4744 12.3182 15.6008 11.9999 15.6008C11.6816 15.6008 11.3764 15.4744 11.1514 15.2493C10.9263 15.0243 10.7999 14.7191 10.7999 14.4008V5.76559Z" fill="#FF6B0A"/>
</svg>
